<?xml version="1.0" encoding="utf-8" standalone="no"?>
<!DOCTYPE svg PUBLIC "-//W3C//DTD SVG 1.1//EN"
  "http://www.w3.org/Graphics/SVG/1.1/DTD/svg11.dtd">
<svg xmlns:xlink="http://www.w3.org/1999/xlink" width="720pt" height="388.8pt" viewBox="0 0 720 388.8" xmlns="http://www.w3.org/2000/svg" version="1.1">
 <metadata>
  <rdf:RDF xmlns:dc="http://purl.org/dc/elements/1.1/" xmlns:cc="http://creativecommons.org/ns#" xmlns:rdf="http://www.w3.org/1999/02/22-rdf-syntax-ns#">
   <cc:Work>
    <dc:type rdf:resource="http://purl.org/dc/dcmitype/StillImage"/>
    <dc:date>2026-08-25T09:39:11.423312</dc:date>
    <dc:format>image/svg+xml</dc:format>
    <dc:creator>
     <cc:Agent>
      <dc:title>Matplotlib v3.10.6, https://matplotlib.org/</dc:title>
     </cc:Agent>
    </dc:creator>
   </cc:Work>
  </rdf:RDF>
 </metadata>
 <defs>
  <style type="text/css">*{stroke-linejoin: round; stroke-linecap: butt}</style>
 </defs>
 <g id="figure_1">
  <g id="patch_1">
   <path d="M 0 388.8 
L 720 388.8 
L 720 0 
L 0 0 
z
" style="fill: #ffffff"/>
  </g>
  <g id="axes_1">
   <g id="patch_2">
    <path d="M 45.345084 353.985698 
L 716.99976 353.985698 
L 716.99976 19.087928 
L 45.345084 19.087928 
z
" style="fill: #ffffff"/>
   </g>
   <g id="FillBetweenPolyCollection_1">
    <defs>
     <path id="m848889285b" d="M 59.946272 -46.263799 
L 59.946272 -46.263799 
L 67.246867 -46.263799 
L 176.755781 -46.263799 
L 322.767667 -46.263799 
L 381.172422 -46.263799 
L 381.172422 -46.263799 
L 381.172422 -46.263799 
L 322.767667 -332.501209 
L 176.755781 -332.501209 
L 67.246867 -332.501209 
L 59.946272 -46.263799 
z
" style="stroke: #1f77b4; stroke-opacity: 0.12"/>
    </defs>
    <g clip-path="url(#p3efd1a14b7)">
     <use xlink:href="#m848889285b" x="0" y="388.8" style="fill: #1f77b4; fill-opacity: 0.12; stroke: #1f77b4; stroke-opacity: 0.12"/>
    </g>
   </g>
   <g id="FillBetweenPolyCollection_2">
    <defs>
     <path id="mf8426f406d" d="M 322.767667 -46.263799 
L 322.767667 -46.263799 
L 381.172422 -46.263799 
L 439.577176 -46.263799 
L 651.294411 -46.263799 
L 702.398571 -46.263799 
L 702.398571 -46.263799 
L 702.398571 -46.263799 
L 651.294411 -332.501209 
L 439.577176 -332.501209 
L 381.172422 -332.501209 
L 322.767667 -46.263799 
z
" style="stroke: #ff7f0e; stroke-opacity: 0.12"/>
    </defs>
    <g clip-path="url(#p3efd1a14b7)">
     <use xlink:href="#mf8426f406d" x="0" y="388.8" style="fill: #ff7f0e; fill-opacity: 0.12; stroke: #ff7f0e; stroke-opacity: 0.12"/>
    </g>
   </g>
   <g id="patch_3">
    <path d="M 322.767667 353.985698 
L 381.172422 353.985698 
L 381.172422 19.087928 
L 322.767667 19.087928 
z
" clip-path="url(#p3efd1a14b7)" style="fill: #808080; opacity: 0.1; stroke: #808080; stroke-linejoin: miter"/>
   </g>
   <g id="matplotlib.axis_1">
    <g id="xtick_1">
     <g id="line2d_1">
      <path d="M 147.553404 353.985698 
L 147.553404 19.087928 
" clip-path="url(#p3efd1a14b7)" style="fill: none; stroke: #b0b0b0; stroke-opacity: 0.3; stroke-width: 0.8; stroke-linecap: square"/>
     </g>
     <g id="line2d_2">
      <defs>
       <path id="m7303c2dfa1" d="M 0 0 
L 0 3.5 
" style="stroke: #000000; stroke-width: 0.8"/>
      </defs>
      <g>
       <use xlink:href="#m7303c2dfa1" x="147.553404" y="353.985698" style="stroke: #000000; stroke-width: 0.8"/>
      </g>
     </g>
     <g id="text_1">
      <text style="font-size: 11px; font-family: 'Yu Gothic'; text-anchor: middle" x="147.553404" y="369.392104" transform="rotate(-0 147.553404 369.392104)">-200</text>
     </g>
    </g>
    <g id="xtick_2">
     <g id="line2d_3">
      <path d="M 293.56529 353.985698 
L 293.56529 19.087928 
" clip-path="url(#p3efd1a14b7)" style="fill: none; stroke: #b0b0b0; stroke-opacity: 0.3; stroke-width: 0.8; stroke-linecap: square"/>
     </g>
     <g id="line2d_4">
      <g>
       <use xlink:href="#m7303c2dfa1" x="293.56529" y="353.985698" style="stroke: #000000; stroke-width: 0.8"/>
      </g>
     </g>
     <g id="text_2">
      <text style="font-size: 11px; font-family: 'Yu Gothic'; text-anchor: middle" x="293.56529" y="369.392104" transform="rotate(-0 293.56529 369.392104)">-100</text>
     </g>
    </g>
    <g id="xtick_3">
     <g id="line2d_5">
      <path d="M 439.577176 353.985698 
L 439.577176 19.087928 
" clip-path="url(#p3efd1a14b7)" style="fill: none; stroke: #b0b0b0; stroke-opacity: 0.3; stroke-width: 0.8; stroke-linecap: square"/>
     </g>
     <g id="line2d_6">
      <g>
       <use xlink:href="#m7303c2dfa1" x="439.577176" y="353.985698" style="stroke: #000000; stroke-width: 0.8"/>
      </g>
     </g>
     <g id="text_3">
      <text style="font-size: 11px; font-family: 'Yu Gothic'; text-anchor: middle" x="439.577176" y="369.392104" transform="rotate(-0 439.577176 369.392104)">0</text>
     </g>
    </g>
    <g id="xtick_4">
     <g id="line2d_7">
      <path d="M 585.589062 353.985698 
L 585.589062 19.087928 
" clip-path="url(#p3efd1a14b7)" style="fill: none; stroke: #b0b0b0; stroke-opacity: 0.3; stroke-width: 0.8; stroke-linecap: square"/>
     </g>
     <g id="line2d_8">
      <g>
       <use xlink:href="#m7303c2dfa1" x="585.589062" y="353.985698" style="stroke: #000000; stroke-width: 0.8"/>
      </g>
     </g>
     <g id="text_4">
      <text style="font-size: 11px; font-family: 'Yu Gothic'; text-anchor: middle" x="585.589062" y="369.392104" transform="rotate(-0 585.589062 369.392104)">100</text>
     </g>
    </g>
    <g id="text_5">
     <text style="font-size: 11px; font-family: 'Yu Gothic'; text-anchor: middle" x="381.172422" y="384.048354" transform="rotate(-0 381.172422 384.048354)">次のモーラの基準時刻からの相対時間 (ms)</text>
    </g>
   </g>
   <g id="matplotlib.axis_2">
    <g id="ytick_1">
     <g id="line2d_9">
      <path d="M 45.345084 342.536201 
L 716.99976 342.536201 
" clip-path="url(#p3efd1a14b7)" style="fill: none; stroke: #b0b0b0; stroke-opacity: 0.3; stroke-width: 0.8; stroke-linecap: square"/>
     </g>
     <g id="line2d_10">
      <defs>
       <path id="m80acdfe84f" d="M 0 0 
L -3.5 0 
" style="stroke: #000000; stroke-width: 0.8"/>
      </defs>
      <g>
       <use xlink:href="#m80acdfe84f" x="45.345084" y="342.536201" style="stroke: #000000; stroke-width: 0.8"/>
      </g>
     </g>
     <g id="text_6">
      <text style="font-size: 11px; font-family: 'Yu Gothic'; text-anchor: end" x="38.345084" y="346.739404" transform="rotate(-0 38.345084 346.739404)">0.00</text>
     </g>
    </g>
    <g id="ytick_2">
     <g id="line2d_11">
      <path d="M 45.345084 270.976849 
L 716.99976 270.976849 
" clip-path="url(#p3efd1a14b7)" style="fill: none; stroke: #b0b0b0; stroke-opacity: 0.3; stroke-width: 0.8; stroke-linecap: square"/>
     </g>
     <g id="line2d_12">
      <g>
       <use xlink:href="#m80acdfe84f" x="45.345084" y="270.976849" style="stroke: #000000; stroke-width: 0.8"/>
      </g>
     </g>
     <g id="text_7">
      <text style="font-size: 11px; font-family: 'Yu Gothic'; text-anchor: end" x="38.345084" y="275.180052" transform="rotate(-0 38.345084 275.180052)">0.25</text>
     </g>
    </g>
    <g id="ytick_3">
     <g id="line2d_13">
      <path d="M 45.345084 199.417496 
L 716.99976 199.417496 
" clip-path="url(#p3efd1a14b7)" style="fill: none; stroke: #b0b0b0; stroke-opacity: 0.3; stroke-width: 0.8; stroke-linecap: square"/>
     </g>
     <g id="line2d_14">
      <g>
       <use xlink:href="#m80acdfe84f" x="45.345084" y="199.417496" style="stroke: #000000; stroke-width: 0.8"/>
      </g>
     </g>
     <g id="text_8">
      <text style="font-size: 11px; font-family: 'Yu Gothic'; text-anchor: end" x="38.345084" y="203.620699" transform="rotate(-0 38.345084 203.620699)">0.50</text>
     </g>
    </g>
    <g id="ytick_4">
     <g id="line2d_15">
      <path d="M 45.345084 127.858143 
L 716.99976 127.858143 
" clip-path="url(#p3efd1a14b7)" style="fill: none; stroke: #b0b0b0; stroke-opacity: 0.3; stroke-width: 0.8; stroke-linecap: square"/>
     </g>
     <g id="line2d_16">
      <g>
       <use xlink:href="#m80acdfe84f" x="45.345084" y="127.858143" style="stroke: #000000; stroke-width: 0.8"/>
      </g>
     </g>
     <g id="text_9">
      <text style="font-size: 11px; font-family: 'Yu Gothic'; text-anchor: end" x="38.345084" y="132.061347" transform="rotate(-0 38.345084 132.061347)">0.75</text>
     </g>
    </g>
    <g id="ytick_5">
     <g id="line2d_17">
      <path d="M 45.345084 56.298791 
L 716.99976 56.298791 
" clip-path="url(#p3efd1a14b7)" style="fill: none; stroke: #b0b0b0; stroke-opacity: 0.3; stroke-width: 0.8; stroke-linecap: square"/>
     </g>
     <g id="line2d_18">
      <g>
       <use xlink:href="#m80acdfe84f" x="45.345084" y="56.298791" style="stroke: #000000; stroke-width: 0.8"/>
      </g>
     </g>
     <g id="text_10">
      <text style="font-size: 11px; font-family: 'Yu Gothic'; text-anchor: end" x="38.345084" y="60.501994" transform="rotate(-0 38.345084 60.501994)">1.00</text>
     </g>
    </g>
    <g id="text_11">
     <text style="font-size: 11px; font-family: 'Yu Gothic'; text-anchor: middle" x="11.406646" y="186.536813" transform="rotate(-90 11.406646 186.536813)">gain</text>
    </g>
   </g>
   <g id="line2d_19">
    <path d="M 59.946272 342.536201 
L 67.246867 56.298791 
L 176.755781 56.298791 
L 322.767667 56.298791 
L 381.172422 342.536201 
" clip-path="url(#p3efd1a14b7)" style="fill: none; stroke: #1f77b4; stroke-width: 2.2; stroke-linecap: square"/>
   </g>
   <g id="line2d_20">
    <path d="M 322.767667 342.536201 
L 381.172422 56.298791 
L 439.577176 56.298791 
L 651.294411 56.298791 
L 702.398571 342.536201 
" clip-path="url(#p3efd1a14b7)" style="fill: none; stroke: #ff7f0e; stroke-width: 2.2; stroke-linecap: square"/>
   </g>
   <g id="line2d_21">
    <path d="M 439.577176 353.985698 
L 439.577176 19.087928 
" clip-path="url(#p3efd1a14b7)" style="fill: none; stroke-dasharray: 3.7,1.6; stroke-dashoffset: 0; stroke: #595959"/>
   </g>
   <g id="patch_4">
    <path d="M 45.345084 353.985698 
L 45.345084 19.087928 
" style="fill: none; stroke: #000000; stroke-width: 0.8; stroke-linejoin: miter; stroke-linecap: square"/>
   </g>
   <g id="patch_5">
    <path d="M 716.99976 353.985698 
L 716.99976 19.087928 
" style="fill: none; stroke: #000000; stroke-width: 0.8; stroke-linejoin: miter; stroke-linecap: square"/>
   </g>
   <g id="patch_6">
    <path d="M 45.345084 353.985698 
L 716.99976 353.985698 
" style="fill: none; stroke: #000000; stroke-width: 0.8; stroke-linejoin: miter; stroke-linecap: square"/>
   </g>
   <g id="patch_7">
    <path d="M 45.345084 19.087928 
L 716.99976 19.087928 
" style="fill: none; stroke: #000000; stroke-width: 0.8; stroke-linejoin: miter; stroke-linecap: square"/>
   </g>
   <g id="PathCollection_1">
    <defs>
     <path id="m1e07e2243f" d="M 0 3 
C 0.795609 3 1.55874 2.683901 2.12132 2.12132 
C 2.683901 1.55874 3 0.795609 3 0 
C 3 -0.795609 2.683901 -1.55874 2.12132 -2.12132 
C 1.55874 -2.683901 0.795609 -3 0 -3 
C -0.795609 -3 -1.55874 -2.683901 -2.12132 -2.12132 
C -2.683901 -1.55874 -3 -0.795609 -3 0 
C -3 0.795609 -2.683901 1.55874 -2.12132 2.12132 
C -1.55874 2.683901 -0.795609 3 0 3 
z
" style="stroke: #ff7f0e"/>
    </defs>
    <g clip-path="url(#p3efd1a14b7)">
     <use xlink:href="#m1e07e2243f" x="322.767667" y="342.536201" style="fill: #ff7f0e; stroke: #ff7f0e"/>
     <use xlink:href="#m1e07e2243f" x="381.172422" y="56.298791" style="fill: #ff7f0e; stroke: #ff7f0e"/>
     <use xlink:href="#m1e07e2243f" x="439.577176" y="56.298791" style="fill: #ff7f0e; stroke: #ff7f0e"/>
     <use xlink:href="#m1e07e2243f" x="651.294411" y="56.298791" style="fill: #ff7f0e; stroke: #ff7f0e"/>
     <use xlink:href="#m1e07e2243f" x="702.398571" y="342.536201" style="fill: #ff7f0e; stroke: #ff7f0e"/>
    </g>
   </g>
   <g id="text_12">
    <text style="font-size: 11px; font-family: 'Yu Gothic'; text-anchor: start" x="318.767667" y="334.536201" transform="rotate(-0 318.767667 334.536201)">p0</text>
   </g>
   <g id="text_13">
    <text style="font-size: 11px; font-family: 'Yu Gothic'; text-anchor: start" x="377.172422" y="47.298791" transform="rotate(-0 377.172422 47.298791)">p1</text>
   </g>
   <g id="text_14">
    <text style="font-size: 11px; font-family: 'Yu Gothic'; text-anchor: start" x="435.577176" y="47.298791" transform="rotate(-0 435.577176 47.298791)">p2</text>
   </g>
   <g id="text_15">
    <text style="font-size: 11px; font-family: 'Yu Gothic'; text-anchor: start" x="647.294411" y="47.298791" transform="rotate(-0 647.294411 47.298791)">p3</text>
   </g>
   <g id="text_16">
    <text style="font-size: 11px; font-family: 'Yu Gothic'; text-anchor: start" x="698.398571" y="334.536201" transform="rotate(-0 698.398571 334.536201)">p4</text>
   </g>
   <g id="text_17">
    <text style="font-size: 13.2px; font-family: 'Yu Gothic'; text-anchor: middle" x="381.172422" y="13.087928" transform="rotate(-0 381.172422 13.087928)">5点包絡線による原音の接続</text>
   </g>
   <g id="legend_1">
    <g id="patch_8">
     <path d="M 53.045084 348.485698 
L 295.045084 348.485698 
Q 297.245084 348.485698 297.245084 346.285698 
L 297.245084 316.070073 
Q 297.245084 313.870072 295.045084 313.870072 
L 53.045084 313.870072 
Q 50.845084 313.870072 50.845084 316.070073 
L 50.845084 346.285698 
Q 50.845084 348.485698 53.045084 348.485698 
z
" style="fill: #ffffff; opacity: 0.8; stroke: #cccccc; stroke-linejoin: miter"/>
    </g>
    <g id="line2d_22">
     <path d="M 55.245084 322.826479 
L 66.245084 322.826479 
L 77.245084 322.826479 
" style="fill: none; stroke: #1f77b4; stroke-width: 2.2; stroke-linecap: square"/>
    </g>
    <g id="text_18">
     <text style="font-size: 11px; font-family: 'Yu Gothic'; text-anchor: start" x="86.045084" y="326.676479" transform="rotate(-0 86.045084 326.676479)">前の原音</text>
    </g>
    <g id="line2d_23">
     <path d="M 55.245084 338.484291 
L 66.245084 338.484291 
L 77.245084 338.484291 
" style="fill: none; stroke: #ff7f0e; stroke-width: 2.2; stroke-linecap: square"/>
    </g>
    <g id="text_19">
     <text style="font-size: 11px; font-family: 'Yu Gothic'; text-anchor: start" x="86.045084" y="342.334291" transform="rotate(-0 86.045084 342.334291)">次の原音</text>
    </g>
    <g id="line2d_24">
     <path d="M 152.045084 322.826479 
L 163.045084 322.826479 
L 174.045084 322.826479 
" style="fill: none; stroke-dasharray: 3.7,1.6; stroke-dashoffset: 0; stroke: #595959"/>
    </g>
    <g id="text_20">
     <text style="font-size: 11px; font-family: 'Yu Gothic'; text-anchor: start" x="182.845084" y="326.676479" transform="rotate(-0 182.845084 326.676479)">次のモーラの基準時刻</text>
    </g>
    <g id="patch_9">
     <path d="M 152.045084 342.334291 
L 174.045084 342.334291 
L 174.045084 334.634291 
L 152.045084 334.634291 
z
" style="fill: #808080; opacity: 0.1; stroke: #808080; stroke-linejoin: miter"/>
    </g>
    <g id="text_21">
     <text style="font-size: 11px; font-family: 'Yu Gothic'; text-anchor: start" x="182.845084" y="342.334291" transform="rotate(-0 182.845084 342.334291)">重なり区間</text>
    </g>
   </g>
  </g>
 </g>
 <defs>
  <clipPath id="p3efd1a14b7">
   <rect x="45.345084" y="19.087928" width="671.654676" height="334.89777"/>
  </clipPath>
 </defs>
</svg>
